<svg width="current" height="current" viewBox="0 0 24 24" fill="none" xmlns="http://www.w3.org/2000/svg">
<path d="M17.25 8.19H15.57L15.13 7.1C14.86 6.44 14.22 6 13.51 6H10.49C9.77 6 9.13 6.44 8.87 7.1L8.43 8.19H6.75C5.78 8.19 5 8.97 5 9.94V15.63C5 16.6 5.78 17.38 6.75 17.38H17.25C18.22 17.38 19 16.6 19 15.63V9.94C19 8.97 18.22 8.19 17.25 8.19ZM12 16.16C10.14 16.16 8.62 14.65 8.62 12.78C8.62 10.91 10.13 9.4 12 9.4C13.87 9.4 15.38 10.91 15.38 12.78C15.38 14.65 13.87 16.16 12 16.16Z" fill="#707070"/>
<path d="M12 14.78C13.1046 14.78 14 13.8846 14 12.78C14 11.6755 13.1046 10.78 12 10.78C10.8954 10.78 10 11.6755 10 12.78C10 13.8846 10.8954 14.78 12 14.78Z" fill="#707070"/>
</svg>
