<svg width="24" height="24" viewBox="0 0 24 24" fill="none" xmlns="http://www.w3.org/2000/svg">
<path d="M15.45 6C14.08 6 12.85 6.81 12.31 8.07L12 8.8L11.69 8.07C11.15 6.81 9.92 6 8.55 6C7.3 6 6.15 6.68 5.55 7.78C5.19 8.45 5 9.19 5 9.95C5 10.69 5.12 11.89 5.77 13.13C5.98 13.53 6.42 14.27 7.92 15.6C8.83 16.4 10.17 17.46 11.99 18.48C13.81 17.46 15.16 16.4 16.06 15.6C17.56 14.27 18 13.53 18.21 13.13C18.86 11.88 18.98 10.69 18.98 9.95C18.98 9.19 18.79 8.45 18.43 7.78C17.83 6.68 16.68 6 15.43 6H15.45Z" stroke="#707070" stroke-width="2" stroke-linecap="round" stroke-linejoin="round"/>
</svg>
