<svg width="current" height="current" viewBox="0 0 20 20" fill="none" xmlns="http://www.w3.org/2000/svg">
<path d="M12.46 6C11.48 6 10.6 6.58 10.22 7.48L10 8L9.78 7.48C9.4 6.58 8.51 6 7.54 6C6.64 6 5.82 6.49 5.39 7.27C5.13 7.75 5 8.28 5 8.82C5 9.35 5.09 10.2 5.55 11.09C5.7 11.37 6.01 11.91 7.09 12.85C7.74 13.42 8.7 14.18 10 14.91C11.3 14.18 12.26 13.42 12.91 12.85C13.98 11.9 14.3 11.37 14.45 11.09C14.92 10.2 15 9.34 15 8.82C15 8.28 14.86 7.75 14.61 7.27C14.18 6.48 13.36 6 12.47 6H12.46Z" fill="#707070"/>
</svg>
