<svg width="current" height="current" viewBox="0 0 20 20" fill="none" xmlns="http://www.w3.org/2000/svg">
<path d="M10 6.5C6.49 6.5 5 10 5 10C5 10 6.49 13.5 10 13.5C13.51 13.5 15 10 15 10C15 10 13.51 6.5 10 6.5ZM10 12.25C8.76 12.25 7.75 11.24 7.75 10C7.75 8.76 8.76 7.75 10 7.75C11.24 7.75 12.25 8.76 12.25 10C12.25 11.24 11.24 12.25 10 12.25Z" fill="#707070"/>
<path d="M10 11.25C10.6904 11.25 11.25 10.6904 11.25 10C11.25 9.30964 10.6904 8.75 10 8.75C9.30964 8.75 8.75 9.30964 8.75 10C8.75 10.6904 9.30964 11.25 10 11.25Z" fill="#707070"/>
</svg>
