<svg width="24" height="24" viewBox="0 0 24 24" fill="none" xmlns="http://www.w3.org/2000/svg">
<path d="M15 7H19" stroke="#707070" stroke-width="1.5" stroke-miterlimit="10" stroke-linecap="round" stroke-linejoin="round"/>
<path d="M17 5V9" stroke="#707070" stroke-width="1.5" stroke-miterlimit="10" stroke-linecap="round" stroke-linejoin="round"/>
<path d="M6.08 19C7.22875 19 8.16 18.1046 8.16 17C8.16 15.8954 7.22875 15 6.08 15C4.93125 15 4 15.8954 4 17C4 18.1046 4.93125 19 6.08 19Z" fill="#707070"/>
<path d="M12.62 19C13.7688 19 14.7 18.1046 14.7 17C14.7 15.8954 13.7688 15 12.62 15C11.4713 15 10.54 15.8954 10.54 17C10.54 18.1046 11.4713 19 12.62 19Z" fill="#707070"/>
<path d="M13.9 17.17L14.84 11.83C15 10.91 14.3 10.07 13.36 10.07H9.85998C9.12998 10.07 8.50998 10.59 8.37998 11.31L7.34998 17.17" stroke="#707070" stroke-width="1.5" stroke-miterlimit="10"/>
<path d="M8.03992 13.27H14.5799" stroke="#707070" stroke-width="1.5" stroke-miterlimit="10"/>
</svg>
