<svg width="current" height="current" viewBox="0 0 24 24" fill="none" xmlns="http://www.w3.org/2000/svg">
<path d="M15.25 7.15L12 5L8.75 7.15L5.95 9.01C5.67 9.2 5.5 9.51 5.5 9.84V17C5.5 18.1 6.4 19 7.5 19H16.5C17.6 19 18.5 18.1 18.5 17V9.84C18.5 9.5 18.33 9.19 18.05 9.01L15.25 7.15Z" stroke="current" stroke-width="2" stroke-linecap="round" stroke-linejoin="round"/>
<path d="M14.63 11.21C14.04 10.28 12.84 10.04 12.7 10.02C12.61 10.01 12.53 10.02 12.45 10.03C12.14 10.08 11.87 10.31 11.81 10.63L11.44 12.58C11.24 12.51 11.03 12.47 10.81 12.47C9.79998 12.47 8.97998 13.26 8.97998 14.24C8.97998 15.22 9.79998 16.01 10.81 16.01C11.7 16.01 12.45 15.39 12.61 14.58C12.61 14.58 12.61 14.58 12.61 14.56L13.19 11.48C13.35 11.58 13.5 11.69 13.6 11.84C13.73 12.05 13.76 12.31 13.67 12.64C13.58 12.96 13.77 13.29 14.09 13.38C14.14 13.39 14.2 13.4 14.25 13.4C14.52 13.4 14.76 13.23 14.83 12.96C15.01 12.31 14.94 11.7 14.62 11.2L14.63 11.21Z" fill="current"/>
</svg>
